<?xml version="1.0" encoding="utf-8"?>
<!-- Generator: Adobe Illustrator 22.0.1, SVG Export Plug-In . SVG Version: 6.00 Build 0)  -->
<svg version="1.1" id="Layer_1" xmlns="http://www.w3.org/2000/svg" xmlns:xlink="http://www.w3.org/1999/xlink" x="0px" y="0px"
	 viewBox="0 0 86 40" style="enable-background:new 0 0 86 40;" xml:space="preserve">
<style type="text/css">
	.st0{fill:#1565C0;}
	.st1{fill:#002171;}
</style>
<path class="st0" d="M29.9,2.6c3,1.8,5.4,4.2,7.1,7.2c1.8,3,2.6,6.4,2.6,10.2v16.1c0,1.1-0.3,1.9-1,2.6c-0.7,0.7-1.6,1-2.6,1
	c-1.1,0-1.9-0.3-2.6-1c-0.7-0.7-1-1.6-1-2.6v-2.7c-1.7,2.1-3.7,3.7-6.1,4.8c-2.4,1.2-5,1.7-7.8,1.7c-3.5,0-6.6-0.9-9.4-2.6
	c-2.8-1.7-5-4.1-6.6-7.2C0.8,27.2,0,23.8,0,20c0-3.7,0.9-7.1,2.6-10.2c1.7-3,4.1-5.4,7.2-7.2c3-1.8,6.4-2.6,10.1-2.6
	C23.6,0,26.9,0.9,29.9,2.6z M26.4,31.7c1.9-1.2,3.5-2.8,4.6-4.8c1.1-2,1.7-4.3,1.7-6.9c0-2.5-0.6-4.8-1.7-6.9
	c-1.1-2.1-2.6-3.7-4.6-4.9c-1.9-1.2-4.1-1.8-6.5-1.8S15.3,7,13.4,8.2S9.9,11,8.8,13.1S7.1,17.5,7.1,20s0.6,4.8,1.7,6.9
	c1.1,2,2.7,3.6,4.6,4.8s4.1,1.8,6.5,1.8S24.4,32.9,26.4,31.7z"/>
<path class="st1" d="M85,21.6c-0.6,0.6-1.4,0.9-2.4,0.9H55.3c0.5,3.4,2.1,6.1,4.6,8.1c2.5,2.1,5.6,3.1,9.3,3.1
	c1.4,0,2.9-0.3,4.5-0.8s2.8-1.2,3.9-1.9c0.7-0.5,1.5-0.8,2.4-0.8s1.6,0.2,2.2,0.7c0.9,0.7,1.3,1.5,1.3,2.4s-0.4,1.6-1.2,2.2
	c-1.6,1.3-3.7,2.4-6.1,3.2s-4.7,1.2-6.9,1.2c-3.9,0-7.5-0.9-10.6-2.6c-3.1-1.7-5.6-4.1-7.3-7.1c-1.8-3-2.6-6.5-2.6-10.3
	s0.8-7.3,2.5-10.3s4-5.4,6.9-7.1c3-1.7,6.3-2.6,10-2.6c3.7,0,6.9,0.8,9.6,2.4s4.8,3.9,6.2,6.8c1.4,2.9,2.2,6.3,2.2,10.1
	C86,20.3,85.7,21,85,21.6z M59.5,9.1c-2.2,1.9-3.6,4.5-4.1,7.7h24c-0.4-3.2-1.6-5.8-3.6-7.7s-4.5-2.9-7.7-2.9
	C64.5,6.2,61.7,7.2,59.5,9.1z"/>
</svg>
